<svg width="234" height="234" viewBox="0 0 234 234" fill="none" xmlns="http://www.w3.org/2000/svg">
<rect width="234" height="234" fill="white"/>
<g clip-path="url(#clip0_11_6918)">
<path d="M72.8942 84H65.9986C65.2491 84 64.5303 84.2897 64.0003 84.8054C63.4703 85.321 63.1726 86.0204 63.1726 86.7497V109.901C63.1726 110.144 63.2715 110.377 63.4475 110.549C63.6236 110.721 63.8625 110.818 64.112 110.819H74.7769C75.0271 110.819 75.267 110.722 75.4439 110.55C75.6208 110.378 75.7202 110.144 75.7202 109.901V86.7497C75.7202 86.0204 75.4225 85.321 74.8925 84.8054C74.3625 84.2897 73.6437 84 72.8942 84Z" fill="url(#paint0_linear_11_6918)"/>
<path d="M65.9986 149.93H72.8942C73.6437 149.93 74.3625 149.64 74.8925 149.125C75.4225 148.609 75.7202 147.91 75.7202 147.18V124.029C75.7202 123.786 75.6214 123.553 75.4453 123.381C75.2692 123.209 75.0303 123.112 74.7808 123.111H64.1159C63.8657 123.111 63.6258 123.208 63.4489 123.38C63.272 123.552 63.1726 123.786 63.1726 124.029V147.18C63.1726 147.91 63.4703 148.609 64.0003 149.125C64.5303 149.64 65.2491 149.93 65.9986 149.93Z" fill="url(#paint1_linear_11_6918)"/>
<path d="M47.6369 84H34.6811C34.5532 83.9996 34.4278 84.0343 34.3192 84.1C34.2106 84.1657 34.1232 84.2598 34.067 84.3715C34.0107 84.4833 33.988 84.6082 34.0012 84.732C34.0145 84.8557 34.0634 84.9734 34.1421 85.0714L36.5061 88.0459C37.187 88.904 37.5542 89.9587 37.5495 91.0428V142.987C37.5542 144.071 37.187 145.126 36.5061 145.984L34.1421 148.959C34.0645 149.057 34.0166 149.174 34.0039 149.297C33.9913 149.42 34.0143 149.544 34.0704 149.656C34.1265 149.767 34.2134 149.86 34.3213 149.926C34.4293 149.991 34.5539 150.026 34.6811 150.026H47.6369C48.3864 150.026 49.1052 149.737 49.6351 149.221C50.1651 148.705 50.4629 148.006 50.4629 147.277V86.7497C50.4629 86.0204 50.1651 85.321 49.6351 84.8054C49.1052 84.2897 48.3864 84 47.6369 84Z" fill="url(#paint2_linear_11_6918)"/>
<path d="M88.5718 88.1581V145.726C88.5715 146.028 88.6478 146.325 88.7941 146.592C88.9404 146.858 89.152 147.086 89.4103 147.254C89.6685 147.422 89.9654 147.525 90.2745 147.554C90.5836 147.584 90.8954 147.538 91.1822 147.423C97.3509 144.901 102.617 140.664 106.321 135.241C110.024 129.819 112 123.454 112 116.944C112 110.433 110.025 104.068 106.321 98.6456C102.618 93.2234 97.3512 88.986 91.1822 86.4649C90.8957 86.3481 90.584 86.302 90.2748 86.3309C89.9656 86.3597 89.6686 86.4625 89.4102 86.6302C89.1517 86.7978 88.9399 87.0251 88.7937 87.2917C88.6474 87.5583 88.5711 87.8559 88.5718 88.1581Z" fill="url(#paint3_linear_11_6918)"/>
</g>
<path d="M129.68 100.08C129.371 99.4293 128.923 98.928 128.336 98.576C127.749 98.2133 127.067 98.032 126.288 98.032C125.509 98.032 124.805 98.2133 124.176 98.576C123.557 98.928 123.067 99.44 122.704 100.112C122.352 100.773 122.176 101.541 122.176 102.416C122.176 103.291 122.352 104.059 122.704 104.72C123.067 105.381 123.557 105.893 124.176 106.256C124.805 106.608 125.509 106.784 126.288 106.784C127.376 106.784 128.272 106.459 128.976 105.808C129.68 105.157 130.091 104.277 130.208 103.168H125.76V101.984H131.76V103.104C131.675 104.021 131.387 104.864 130.896 105.632C130.405 106.389 129.76 106.992 128.96 107.44C128.16 107.877 127.269 108.096 126.288 108.096C125.253 108.096 124.309 107.856 123.456 107.376C122.603 106.885 121.925 106.208 121.424 105.344C120.933 104.48 120.688 103.504 120.688 102.416C120.688 101.328 120.933 100.352 121.424 99.488C121.925 98.6133 122.603 97.936 123.456 97.456C124.309 96.9653 125.253 96.72 126.288 96.72C127.472 96.72 128.517 97.0133 129.424 97.6C130.341 98.1867 131.008 99.0133 131.424 100.08H129.68ZM138.981 106.816H142.885V108H137.525V96.848H138.981V106.816ZM153.327 108.112C152.293 108.112 151.349 107.872 150.495 107.392C149.642 106.901 148.965 106.224 148.463 105.36C147.973 104.485 147.727 103.504 147.727 102.416C147.727 101.328 147.973 100.352 148.463 99.488C148.965 98.6133 149.642 97.936 150.495 97.456C151.349 96.9653 152.293 96.72 153.327 96.72C154.373 96.72 155.322 96.9653 156.175 97.456C157.029 97.936 157.701 98.608 158.191 99.472C158.682 100.336 158.927 101.317 158.927 102.416C158.927 103.515 158.682 104.496 158.191 105.36C157.701 106.224 157.029 106.901 156.175 107.392C155.322 107.872 154.373 108.112 153.327 108.112ZM153.327 106.848C154.106 106.848 154.805 106.667 155.423 106.304C156.053 105.941 156.543 105.424 156.895 104.752C157.258 104.08 157.439 103.301 157.439 102.416C157.439 101.52 157.258 100.741 156.895 100.08C156.543 99.408 156.058 98.8907 155.439 98.528C154.821 98.1653 154.117 97.984 153.327 97.984C152.538 97.984 151.834 98.1653 151.215 98.528C150.597 98.8907 150.106 99.408 149.743 100.08C149.391 100.741 149.215 101.52 149.215 102.416C149.215 103.301 149.391 104.08 149.743 104.752C150.106 105.424 150.597 105.941 151.215 106.304C151.845 106.667 152.549 106.848 153.327 106.848ZM170.274 102.256C170.679 102.32 171.047 102.485 171.378 102.752C171.719 103.019 171.986 103.349 172.178 103.744C172.38 104.139 172.482 104.56 172.482 105.008C172.482 105.573 172.338 106.085 172.05 106.544C171.762 106.992 171.34 107.349 170.786 107.616C170.242 107.872 169.596 108 168.85 108H164.69V96.848H168.69C169.447 96.848 170.092 96.976 170.626 97.232C171.159 97.4773 171.559 97.8133 171.826 98.24C172.092 98.6667 172.226 99.1467 172.226 99.68C172.226 100.341 172.044 100.891 171.682 101.328C171.33 101.755 170.86 102.064 170.274 102.256ZM166.146 101.664H168.594C169.276 101.664 169.804 101.504 170.178 101.184C170.551 100.864 170.738 100.421 170.738 99.856C170.738 99.2907 170.551 98.848 170.178 98.528C169.804 98.208 169.266 98.048 168.562 98.048H166.146V101.664ZM168.722 106.8C169.447 106.8 170.012 106.629 170.418 106.288C170.823 105.947 171.026 105.472 171.026 104.864C171.026 104.245 170.812 103.76 170.386 103.408C169.959 103.045 169.388 102.864 168.674 102.864H166.146V106.8H168.722ZM184.934 105.52H180.07L179.174 108H177.638L181.67 96.912H183.35L187.366 108H185.83L184.934 105.52ZM184.518 104.336L182.502 98.704L180.486 104.336H184.518ZM194.419 106.816H198.323V108H192.963V96.848H194.419V106.816Z" fill="black"/>
<path d="M120.7 127C120.7 125.627 121.007 124.4 121.62 123.32C122.247 122.227 123.093 121.38 124.16 120.78C125.24 120.167 126.447 119.86 127.78 119.86C129.34 119.86 130.707 120.26 131.88 121.06C133.053 121.86 133.873 122.967 134.34 124.38H131.12C130.8 123.713 130.347 123.213 129.76 122.88C129.187 122.547 128.52 122.38 127.76 122.38C126.947 122.38 126.22 122.573 125.58 122.96C124.953 123.333 124.46 123.867 124.1 124.56C123.753 125.253 123.58 126.067 123.58 127C123.58 127.92 123.753 128.733 124.1 129.44C124.46 130.133 124.953 130.673 125.58 131.06C126.22 131.433 126.947 131.62 127.76 131.62C128.52 131.62 129.187 131.453 129.76 131.12C130.347 130.773 130.8 130.267 131.12 129.6H134.34C133.873 131.027 133.053 132.14 131.88 132.94C130.72 133.727 129.353 134.12 127.78 134.12C126.447 134.12 125.24 133.82 124.16 133.22C123.093 132.607 122.247 131.76 121.62 130.68C121.007 129.6 120.7 128.373 120.7 127ZM145.292 131.34H139.732L138.812 134H135.872L140.892 120.02H144.152L149.172 134H146.212L145.292 131.34ZM144.532 129.1L142.512 123.26L140.492 129.1H144.532ZM158.248 134L155.168 128.56H153.848V134H151.048V120.04H156.288C157.368 120.04 158.288 120.233 159.048 120.62C159.808 120.993 160.375 121.507 160.748 122.16C161.135 122.8 161.328 123.52 161.328 124.32C161.328 125.24 161.061 126.073 160.528 126.82C159.995 127.553 159.201 128.06 158.148 128.34L161.488 134H158.248ZM153.848 126.46H156.188C156.948 126.46 157.515 126.28 157.888 125.92C158.261 125.547 158.448 125.033 158.448 124.38C158.448 123.74 158.261 123.247 157.888 122.9C157.515 122.54 156.948 122.36 156.188 122.36H153.848V126.46ZM166.66 122.3V125.8H171.36V128.02H166.66V131.72H171.96V134H163.86V120.02H171.96V122.3H166.66ZM177.305 122.3V125.8H182.005V128.02H177.305V131.72H182.605V134H174.505V120.02H182.605V122.3H177.305ZM192.35 134L189.27 128.56H187.95V134H185.15V120.04H190.39C191.47 120.04 192.39 120.233 193.15 120.62C193.91 120.993 194.476 121.507 194.85 122.16C195.236 122.8 195.43 123.52 195.43 124.32C195.43 125.24 195.163 126.073 194.63 126.82C194.096 127.553 193.303 128.06 192.25 128.34L195.59 134H192.35ZM187.95 126.46H190.29C191.05 126.46 191.616 126.28 191.99 125.92C192.363 125.547 192.55 125.033 192.55 124.38C192.55 123.74 192.363 123.247 191.99 122.9C191.616 122.54 191.05 122.36 190.29 122.36H187.95V126.46Z" fill="black"/>
<defs>
<linearGradient id="paint0_linear_11_6918" x1="69.5715" y1="83.8576" x2="69.0102" y2="152.724" gradientUnits="userSpaceOnUse">
<stop offset="0.04" stop-color="#F9179A"/>
<stop offset="0.71" stop-color="#5D1155"/>
<stop offset="0.9" stop-color="#B01974"/>
<stop offset="1.0001" stop-color="#A0035E"/>
</linearGradient>
<linearGradient id="paint1_linear_11_6918" x1="69.3213" y1="150.072" x2="69.8826" y2="81.2062" gradientUnits="userSpaceOnUse">
<stop offset="0.04" stop-color="#F9179A"/>
<stop offset="0.71" stop-color="#5D1155"/>
<stop offset="0.9" stop-color="#B01974"/>
<stop offset="1.0001" stop-color="#A0035E"/>
</linearGradient>
<linearGradient id="paint2_linear_11_6918" x1="42.2313" y1="82.1307" x2="42.2313" y2="152.697" gradientUnits="userSpaceOnUse">
<stop stop-color="#FFCCE9"/>
<stop offset="0.98" stop-color="#F9179A"/>
</linearGradient>
<linearGradient id="paint3_linear_11_6918" x1="100.284" y1="83.0184" x2="100.284" y2="151.783" gradientUnits="userSpaceOnUse">
<stop stop-color="#FFCAE9"/>
<stop offset="0.98" stop-color="#F9179A"/>
</linearGradient>
<clipPath id="clip0_11_6918">
<rect width="78" height="66" fill="white" transform="translate(34 84)"/>
</clipPath>
</defs>
</svg>
