<svg width="313" height="170" viewBox="0 0 313 170" fill="none" xmlns="http://www.w3.org/2000/svg">
<rect width="313" height="170" fill="white"/>
<g clip-path="url(#clip0_11_6896)">
<path d="M112.894 52H105.998C105.249 52 104.53 52.2897 104 52.8054C103.47 53.321 103.172 54.0204 103.172 54.7497V77.901C103.172 78.1438 103.271 78.3767 103.447 78.5487C103.623 78.7207 103.862 78.8178 104.112 78.8188H114.777C115.027 78.8188 115.267 78.7221 115.444 78.55C115.621 78.3779 115.72 78.1444 115.72 77.901V54.7497C115.72 54.0204 115.422 53.321 114.892 52.8054C114.362 52.2897 113.643 52 112.894 52Z" fill="url(#paint0_linear_11_6896)"/>
<path d="M105.999 117.93H112.894C113.644 117.93 114.363 117.64 114.892 117.125C115.422 116.609 115.72 115.91 115.72 115.18V92.0289C115.72 91.7861 115.621 91.5533 115.445 91.3813C115.269 91.2092 115.03 91.1121 114.781 91.1111H104.116C103.866 91.1111 103.626 91.2078 103.449 91.3799C103.272 91.5521 103.173 91.7855 103.173 92.0289V115.18C103.173 115.91 103.47 116.609 104 117.125C104.53 117.64 105.249 117.93 105.999 117.93Z" fill="url(#paint1_linear_11_6896)"/>
<path d="M87.6369 52H74.6811C74.5532 51.9996 74.4278 52.0343 74.3192 52.1C74.2106 52.1657 74.1232 52.2598 74.067 52.3715C74.0107 52.4833 73.988 52.6082 74.0012 52.732C74.0145 52.8557 74.0634 52.9734 74.1421 53.0714L76.5061 56.0459C77.187 56.904 77.5542 57.9587 77.5495 59.0428V110.987C77.5542 112.071 77.187 113.126 76.5061 113.984L74.1421 116.959C74.0645 117.057 74.0166 117.174 74.0039 117.297C73.9913 117.42 74.0143 117.544 74.0704 117.656C74.1265 117.767 74.2134 117.86 74.3213 117.926C74.4293 117.991 74.5539 118.026 74.6811 118.026H87.6369C88.3864 118.026 89.1052 117.737 89.6351 117.221C90.1651 116.705 90.4629 116.006 90.4629 115.277V54.7497C90.4629 54.0204 90.1651 53.321 89.6351 52.8054C89.1052 52.2897 88.3864 52 87.6369 52Z" fill="url(#paint2_linear_11_6896)"/>
<path d="M128.572 56.1581V113.726C128.571 114.028 128.648 114.325 128.794 114.592C128.94 114.858 129.152 115.086 129.41 115.254C129.669 115.422 129.965 115.525 130.274 115.554C130.584 115.584 130.895 115.538 131.182 115.423C137.351 112.901 142.617 108.664 146.321 103.241C150.024 97.8193 152 91.454 152 84.9437C152 78.4333 150.025 72.0678 146.321 66.6456C142.618 61.2234 137.351 56.986 131.182 54.4649C130.896 54.3481 130.584 54.302 130.275 54.3309C129.966 54.3597 129.669 54.4625 129.41 54.6302C129.152 54.7978 128.94 55.0251 128.794 55.2917C128.647 55.5583 128.571 55.8559 128.572 56.1581Z" fill="url(#paint3_linear_11_6896)"/>
</g>
<path d="M169.68 68.08C169.371 67.4293 168.923 66.928 168.336 66.576C167.749 66.2133 167.067 66.032 166.288 66.032C165.509 66.032 164.805 66.2133 164.176 66.576C163.557 66.928 163.067 67.44 162.704 68.112C162.352 68.7733 162.176 69.5413 162.176 70.416C162.176 71.2907 162.352 72.0587 162.704 72.72C163.067 73.3813 163.557 73.8933 164.176 74.256C164.805 74.608 165.509 74.784 166.288 74.784C167.376 74.784 168.272 74.4587 168.976 73.808C169.68 73.1573 170.091 72.2773 170.208 71.168H165.76V69.984H171.76V71.104C171.675 72.0213 171.387 72.864 170.896 73.632C170.405 74.3893 169.76 74.992 168.96 75.44C168.16 75.8773 167.269 76.096 166.288 76.096C165.253 76.096 164.309 75.856 163.456 75.376C162.603 74.8853 161.925 74.208 161.424 73.344C160.933 72.48 160.688 71.504 160.688 70.416C160.688 69.328 160.933 68.352 161.424 67.488C161.925 66.6133 162.603 65.936 163.456 65.456C164.309 64.9653 165.253 64.72 166.288 64.72C167.472 64.72 168.517 65.0133 169.424 65.6C170.341 66.1867 171.008 67.0133 171.424 68.08H169.68ZM178.981 74.816H182.885V76H177.525V64.848H178.981V74.816ZM193.327 76.112C192.293 76.112 191.349 75.872 190.495 75.392C189.642 74.9013 188.965 74.224 188.463 73.36C187.973 72.4853 187.727 71.504 187.727 70.416C187.727 69.328 187.973 68.352 188.463 67.488C188.965 66.6133 189.642 65.936 190.495 65.456C191.349 64.9653 192.293 64.72 193.327 64.72C194.373 64.72 195.322 64.9653 196.175 65.456C197.029 65.936 197.701 66.608 198.191 67.472C198.682 68.336 198.927 69.3173 198.927 70.416C198.927 71.5147 198.682 72.496 198.191 73.36C197.701 74.224 197.029 74.9013 196.175 75.392C195.322 75.872 194.373 76.112 193.327 76.112ZM193.327 74.848C194.106 74.848 194.805 74.6667 195.423 74.304C196.053 73.9413 196.543 73.424 196.895 72.752C197.258 72.08 197.439 71.3013 197.439 70.416C197.439 69.52 197.258 68.7413 196.895 68.08C196.543 67.408 196.058 66.8907 195.439 66.528C194.821 66.1653 194.117 65.984 193.327 65.984C192.538 65.984 191.834 66.1653 191.215 66.528C190.597 66.8907 190.106 67.408 189.743 68.08C189.391 68.7413 189.215 69.52 189.215 70.416C189.215 71.3013 189.391 72.08 189.743 72.752C190.106 73.424 190.597 73.9413 191.215 74.304C191.845 74.6667 192.549 74.848 193.327 74.848ZM210.274 70.256C210.679 70.32 211.047 70.4853 211.378 70.752C211.719 71.0187 211.986 71.3493 212.178 71.744C212.38 72.1387 212.482 72.56 212.482 73.008C212.482 73.5733 212.338 74.0853 212.05 74.544C211.762 74.992 211.34 75.3493 210.786 75.616C210.242 75.872 209.596 76 208.85 76H204.69V64.848H208.69C209.447 64.848 210.092 64.976 210.626 65.232C211.159 65.4773 211.559 65.8133 211.826 66.24C212.092 66.6667 212.226 67.1467 212.226 67.68C212.226 68.3413 212.044 68.8907 211.682 69.328C211.33 69.7547 210.86 70.064 210.274 70.256ZM206.146 69.664H208.594C209.276 69.664 209.804 69.504 210.178 69.184C210.551 68.864 210.738 68.4213 210.738 67.856C210.738 67.2907 210.551 66.848 210.178 66.528C209.804 66.208 209.266 66.048 208.562 66.048H206.146V69.664ZM208.722 74.8C209.447 74.8 210.012 74.6293 210.418 74.288C210.823 73.9467 211.026 73.472 211.026 72.864C211.026 72.2453 210.812 71.76 210.386 71.408C209.959 71.0453 209.388 70.864 208.674 70.864H206.146V74.8H208.722ZM224.934 73.52H220.07L219.174 76H217.638L221.67 64.912H223.35L227.366 76H225.83L224.934 73.52ZM224.518 72.336L222.502 66.704L220.486 72.336H224.518ZM234.419 74.816H238.323V76H232.963V64.848H234.419V74.816Z" fill="black"/>
<path d="M160.7 95C160.7 93.6267 161.007 92.4 161.62 91.32C162.247 90.2267 163.093 89.38 164.16 88.78C165.24 88.1667 166.447 87.86 167.78 87.86C169.34 87.86 170.707 88.26 171.88 89.06C173.053 89.86 173.873 90.9667 174.34 92.38H171.12C170.8 91.7133 170.347 91.2133 169.76 90.88C169.187 90.5467 168.52 90.38 167.76 90.38C166.947 90.38 166.22 90.5733 165.58 90.96C164.953 91.3333 164.46 91.8667 164.1 92.56C163.753 93.2533 163.58 94.0667 163.58 95C163.58 95.92 163.753 96.7333 164.1 97.44C164.46 98.1333 164.953 98.6733 165.58 99.06C166.22 99.4333 166.947 99.62 167.76 99.62C168.52 99.62 169.187 99.4533 169.76 99.12C170.347 98.7733 170.8 98.2667 171.12 97.6H174.34C173.873 99.0267 173.053 100.14 171.88 100.94C170.72 101.727 169.353 102.12 167.78 102.12C166.447 102.12 165.24 101.82 164.16 101.22C163.093 100.607 162.247 99.76 161.62 98.68C161.007 97.6 160.7 96.3733 160.7 95ZM185.292 99.34H179.732L178.812 102H175.872L180.892 88.02H184.152L189.172 102H186.212L185.292 99.34ZM184.532 97.1L182.512 91.26L180.492 97.1H184.532ZM198.248 102L195.168 96.56H193.848V102H191.048V88.04H196.288C197.368 88.04 198.288 88.2333 199.048 88.62C199.808 88.9933 200.375 89.5067 200.748 90.16C201.135 90.8 201.328 91.52 201.328 92.32C201.328 93.24 201.061 94.0733 200.528 94.82C199.995 95.5533 199.201 96.06 198.148 96.34L201.488 102H198.248ZM193.848 94.46H196.188C196.948 94.46 197.515 94.28 197.888 93.92C198.261 93.5467 198.448 93.0333 198.448 92.38C198.448 91.74 198.261 91.2467 197.888 90.9C197.515 90.54 196.948 90.36 196.188 90.36H193.848V94.46ZM206.66 90.3V93.8H211.36V96.02H206.66V99.72H211.96V102H203.86V88.02H211.96V90.3H206.66ZM217.305 90.3V93.8H222.005V96.02H217.305V99.72H222.605V102H214.505V88.02H222.605V90.3H217.305ZM232.35 102L229.27 96.56H227.95V102H225.15V88.04H230.39C231.47 88.04 232.39 88.2333 233.15 88.62C233.91 88.9933 234.476 89.5067 234.85 90.16C235.236 90.8 235.43 91.52 235.43 92.32C235.43 93.24 235.163 94.0733 234.63 94.82C234.096 95.5533 233.303 96.06 232.25 96.34L235.59 102H232.35ZM227.95 94.46H230.29C231.05 94.46 231.616 94.28 231.99 93.92C232.363 93.5467 232.55 93.0333 232.55 92.38C232.55 91.74 232.363 91.2467 231.99 90.9C231.616 90.54 231.05 90.36 230.29 90.36H227.95V94.46Z" fill="black"/>
<defs>
<linearGradient id="paint0_linear_11_6896" x1="109.571" y1="51.8576" x2="109.01" y2="120.724" gradientUnits="userSpaceOnUse">
<stop offset="0.04" stop-color="#F9179A"/>
<stop offset="0.71" stop-color="#5D1155"/>
<stop offset="0.9" stop-color="#B01974"/>
<stop offset="1.0001" stop-color="#A0035E"/>
</linearGradient>
<linearGradient id="paint1_linear_11_6896" x1="109.321" y1="118.072" x2="109.883" y2="49.2062" gradientUnits="userSpaceOnUse">
<stop offset="0.04" stop-color="#F9179A"/>
<stop offset="0.71" stop-color="#5D1155"/>
<stop offset="0.9" stop-color="#B01974"/>
<stop offset="1.0001" stop-color="#A0035E"/>
</linearGradient>
<linearGradient id="paint2_linear_11_6896" x1="82.2313" y1="50.1307" x2="82.2313" y2="120.697" gradientUnits="userSpaceOnUse">
<stop stop-color="#FFCCE9"/>
<stop offset="0.98" stop-color="#F9179A"/>
</linearGradient>
<linearGradient id="paint3_linear_11_6896" x1="140.284" y1="51.0184" x2="140.284" y2="119.783" gradientUnits="userSpaceOnUse">
<stop stop-color="#FFCAE9"/>
<stop offset="0.98" stop-color="#F9179A"/>
</linearGradient>
<clipPath id="clip0_11_6896">
<rect width="78" height="66" fill="white" transform="translate(74 52)"/>
</clipPath>
</defs>
</svg>
