<svg width="166" height="66" viewBox="0 0 166 66" fill="none" xmlns="http://www.w3.org/2000/svg">
<g clip-path="url(#clip0_11_6919)">
<path d="M38.8942 0H31.9986C31.2491 0 30.5303 0.289697 30.0003 0.805364C29.4703 1.32103 29.1726 2.02043 29.1726 2.74969V25.901C29.1726 26.1438 29.2715 26.3767 29.4475 26.5487C29.6236 26.7207 29.8625 26.8178 30.112 26.8188H40.7769C41.0271 26.8188 41.267 26.7221 41.4439 26.55C41.6208 26.3779 41.7202 26.1444 41.7202 25.901V2.74969C41.7202 2.02043 41.4225 1.32103 40.8925 0.805364C40.3625 0.289697 39.6437 0 38.8942 0Z" fill="url(#paint0_linear_11_6919)"/>
<path d="M31.9986 65.9299H38.8942C39.6437 65.9299 40.3625 65.6402 40.8925 65.1246C41.4225 64.6089 41.7202 63.9095 41.7202 63.1802V40.0289C41.7202 39.7861 41.6214 39.5533 41.4453 39.3813C41.2692 39.2092 41.0303 39.1121 40.7808 39.1111H30.1159C29.8657 39.1111 29.6258 39.2078 29.4489 39.3799C29.272 39.5521 29.1726 39.7855 29.1726 40.0289L29.1726 63.1802C29.1726 63.9095 29.4703 64.6089 30.0003 65.1246C30.5303 65.6402 31.2491 65.9299 31.9986 65.9299Z" fill="url(#paint1_linear_11_6919)"/>
<path d="M13.6369 3.13942e-06H0.681133C0.553243 -0.000379709 0.427822 0.0342607 0.319213 0.0999638C0.210603 0.165667 0.123187 0.25978 0.0669586 0.371545C0.0107303 0.483309 -0.0120416 0.608214 0.00124841 0.731977C0.0145384 0.85574 0.0633577 0.973366 0.142116 1.07141L2.5061 4.04586C3.18704 4.90399 3.55423 5.95867 3.54949 7.0428V58.9872C3.55423 60.0713 3.18704 61.126 2.5061 61.9841L0.142116 64.9586C0.0644886 65.0566 0.0166251 65.1739 0.00394497 65.2971C-0.00873514 65.4202 0.0142734 65.5444 0.070366 65.6555C0.126459 65.7666 0.213393 65.8602 0.321334 65.9257C0.429275 65.9913 0.553911 66.0261 0.681133 66.0262H13.6369C14.3864 66.0262 15.1052 65.7365 15.6351 65.2209C16.1651 64.7052 16.4629 64.0058 16.4629 63.2765V2.74969C16.4629 2.02043 16.1651 1.32103 15.6351 0.805367C15.1052 0.289701 14.3864 3.13942e-06 13.6369 3.13942e-06Z" fill="url(#paint2_linear_11_6919)"/>
<path d="M54.5718 4.15814V61.7255C54.5715 62.0277 54.6478 62.3253 54.7941 62.5919C54.9404 62.8585 55.152 63.0858 55.4103 63.2537C55.6685 63.4216 55.9654 63.5248 56.2745 63.5543C56.5836 63.5837 56.8954 63.5385 57.1822 63.4225C63.3509 60.901 68.6172 56.6635 72.3206 51.2414C76.0241 45.8193 77.9997 39.454 77.9999 32.9437C78.0002 26.4333 76.0248 20.0678 72.3213 14.6456C68.6178 9.22336 63.3512 4.98595 57.1822 2.46487C56.8957 2.34806 56.584 2.30203 56.2748 2.33087C55.9656 2.35971 55.6686 2.46254 55.4102 2.63017C55.1517 2.79781 54.9399 3.02506 54.7937 3.29166C54.6474 3.55826 54.5711 3.85593 54.5718 4.15814Z" fill="url(#paint3_linear_11_6919)"/>
</g>
<path d="M95.68 16.08C95.3707 15.4293 94.9227 14.928 94.336 14.576C93.7493 14.2133 93.0667 14.032 92.288 14.032C91.5093 14.032 90.8053 14.2133 90.176 14.576C89.5573 14.928 89.0667 15.44 88.704 16.112C88.352 16.7733 88.176 17.5413 88.176 18.416C88.176 19.2907 88.352 20.0587 88.704 20.72C89.0667 21.3813 89.5573 21.8933 90.176 22.256C90.8053 22.608 91.5093 22.784 92.288 22.784C93.376 22.784 94.272 22.4587 94.976 21.808C95.68 21.1573 96.0907 20.2773 96.208 19.168H91.76V17.984H97.76V19.104C97.6747 20.0213 97.3867 20.864 96.896 21.632C96.4053 22.3893 95.76 22.992 94.96 23.44C94.16 23.8773 93.2693 24.096 92.288 24.096C91.2533 24.096 90.3093 23.856 89.456 23.376C88.6027 22.8853 87.9253 22.208 87.424 21.344C86.9333 20.48 86.688 19.504 86.688 18.416C86.688 17.328 86.9333 16.352 87.424 15.488C87.9253 14.6133 88.6027 13.936 89.456 13.456C90.3093 12.9653 91.2533 12.72 92.288 12.72C93.472 12.72 94.5173 13.0133 95.424 13.6C96.3413 14.1867 97.008 15.0133 97.424 16.08H95.68ZM104.981 22.816H108.885V24H103.525V12.848H104.981V22.816ZM119.327 24.112C118.293 24.112 117.349 23.872 116.495 23.392C115.642 22.9013 114.965 22.224 114.463 21.36C113.973 20.4853 113.727 19.504 113.727 18.416C113.727 17.328 113.973 16.352 114.463 15.488C114.965 14.6133 115.642 13.936 116.495 13.456C117.349 12.9653 118.293 12.72 119.327 12.72C120.373 12.72 121.322 12.9653 122.175 13.456C123.029 13.936 123.701 14.608 124.191 15.472C124.682 16.336 124.927 17.3173 124.927 18.416C124.927 19.5147 124.682 20.496 124.191 21.36C123.701 22.224 123.029 22.9013 122.175 23.392C121.322 23.872 120.373 24.112 119.327 24.112ZM119.327 22.848C120.106 22.848 120.805 22.6667 121.423 22.304C122.053 21.9413 122.543 21.424 122.895 20.752C123.258 20.08 123.439 19.3013 123.439 18.416C123.439 17.52 123.258 16.7413 122.895 16.08C122.543 15.408 122.058 14.8907 121.439 14.528C120.821 14.1653 120.117 13.984 119.327 13.984C118.538 13.984 117.834 14.1653 117.215 14.528C116.597 14.8907 116.106 15.408 115.743 16.08C115.391 16.7413 115.215 17.52 115.215 18.416C115.215 19.3013 115.391 20.08 115.743 20.752C116.106 21.424 116.597 21.9413 117.215 22.304C117.845 22.6667 118.549 22.848 119.327 22.848ZM136.274 18.256C136.679 18.32 137.047 18.4853 137.378 18.752C137.719 19.0187 137.986 19.3493 138.178 19.744C138.38 20.1387 138.482 20.56 138.482 21.008C138.482 21.5733 138.338 22.0853 138.05 22.544C137.762 22.992 137.34 23.3493 136.786 23.616C136.242 23.872 135.596 24 134.85 24H130.69V12.848H134.69C135.447 12.848 136.092 12.976 136.626 13.232C137.159 13.4773 137.559 13.8133 137.826 14.24C138.092 14.6667 138.226 15.1467 138.226 15.68C138.226 16.3413 138.044 16.8907 137.682 17.328C137.33 17.7547 136.86 18.064 136.274 18.256ZM132.146 17.664H134.594C135.276 17.664 135.804 17.504 136.178 17.184C136.551 16.864 136.738 16.4213 136.738 15.856C136.738 15.2907 136.551 14.848 136.178 14.528C135.804 14.208 135.266 14.048 134.562 14.048H132.146V17.664ZM134.722 22.8C135.447 22.8 136.012 22.6293 136.418 22.288C136.823 21.9467 137.026 21.472 137.026 20.864C137.026 20.2453 136.812 19.76 136.386 19.408C135.959 19.0453 135.388 18.864 134.674 18.864H132.146V22.8H134.722ZM150.934 21.52H146.07L145.174 24H143.638L147.67 12.912H149.35L153.366 24H151.83L150.934 21.52ZM150.518 20.336L148.502 14.704L146.486 20.336H150.518ZM160.419 22.816H164.323V24H158.963V12.848H160.419V22.816Z" fill="black"/>
<path d="M86.7 43C86.7 41.6267 87.0067 40.4 87.62 39.32C88.2467 38.2267 89.0933 37.38 90.16 36.78C91.24 36.1667 92.4467 35.86 93.78 35.86C95.34 35.86 96.7067 36.26 97.88 37.06C99.0533 37.86 99.8733 38.9667 100.34 40.38H97.12C96.8 39.7133 96.3467 39.2133 95.76 38.88C95.1867 38.5467 94.52 38.38 93.76 38.38C92.9467 38.38 92.22 38.5733 91.58 38.96C90.9533 39.3333 90.46 39.8667 90.1 40.56C89.7533 41.2533 89.58 42.0667 89.58 43C89.58 43.92 89.7533 44.7333 90.1 45.44C90.46 46.1333 90.9533 46.6733 91.58 47.06C92.22 47.4333 92.9467 47.62 93.76 47.62C94.52 47.62 95.1867 47.4533 95.76 47.12C96.3467 46.7733 96.8 46.2667 97.12 45.6H100.34C99.8733 47.0267 99.0533 48.14 97.88 48.94C96.72 49.7267 95.3533 50.12 93.78 50.12C92.4467 50.12 91.24 49.82 90.16 49.22C89.0933 48.6067 88.2467 47.76 87.62 46.68C87.0067 45.6 86.7 44.3733 86.7 43ZM111.292 47.34H105.732L104.812 50H101.872L106.892 36.02H110.152L115.172 50H112.212L111.292 47.34ZM110.532 45.1L108.512 39.26L106.492 45.1H110.532ZM124.248 50L121.168 44.56H119.848V50H117.048V36.04H122.288C123.368 36.04 124.288 36.2333 125.048 36.62C125.808 36.9933 126.375 37.5067 126.748 38.16C127.135 38.8 127.328 39.52 127.328 40.32C127.328 41.24 127.061 42.0733 126.528 42.82C125.995 43.5533 125.201 44.06 124.148 44.34L127.488 50H124.248ZM119.848 42.46H122.188C122.948 42.46 123.515 42.28 123.888 41.92C124.261 41.5467 124.448 41.0333 124.448 40.38C124.448 39.74 124.261 39.2467 123.888 38.9C123.515 38.54 122.948 38.36 122.188 38.36H119.848V42.46ZM132.66 38.3V41.8H137.36V44.02H132.66V47.72H137.96V50H129.86V36.02H137.96V38.3H132.66ZM143.305 38.3V41.8H148.005V44.02H143.305V47.72H148.605V50H140.505V36.02H148.605V38.3H143.305ZM158.35 50L155.27 44.56H153.95V50H151.15V36.04H156.39C157.47 36.04 158.39 36.2333 159.15 36.62C159.91 36.9933 160.476 37.5067 160.85 38.16C161.236 38.8 161.43 39.52 161.43 40.32C161.43 41.24 161.163 42.0733 160.63 42.82C160.096 43.5533 159.303 44.06 158.25 44.34L161.59 50H158.35ZM153.95 42.46H156.29C157.05 42.46 157.616 42.28 157.99 41.92C158.363 41.5467 158.55 41.0333 158.55 40.38C158.55 39.74 158.363 39.2467 157.99 38.9C157.616 38.54 157.05 38.36 156.29 38.36H153.95V42.46Z" fill="black"/>
<defs>
<linearGradient id="paint0_linear_11_6919" x1="35.5715" y1="-0.142354" x2="35.0102" y2="68.7237" gradientUnits="userSpaceOnUse">
<stop offset="0.04" stop-color="#F9179A"/>
<stop offset="0.71" stop-color="#5D1155"/>
<stop offset="0.9" stop-color="#B01974"/>
<stop offset="1.0001" stop-color="#A0035E"/>
</linearGradient>
<linearGradient id="paint1_linear_11_6919" x1="35.3213" y1="66.0723" x2="35.8826" y2="-2.7938" gradientUnits="userSpaceOnUse">
<stop offset="0.04" stop-color="#F9179A"/>
<stop offset="0.71" stop-color="#5D1155"/>
<stop offset="0.9" stop-color="#B01974"/>
<stop offset="1.0001" stop-color="#A0035E"/>
</linearGradient>
<linearGradient id="paint2_linear_11_6919" x1="8.23126" y1="-1.86934" x2="8.23126" y2="68.6972" gradientUnits="userSpaceOnUse">
<stop stop-color="#FFCCE9"/>
<stop offset="0.98" stop-color="#F9179A"/>
</linearGradient>
<linearGradient id="paint3_linear_11_6919" x1="66.2839" y1="-0.981605" x2="66.2839" y2="67.7831" gradientUnits="userSpaceOnUse">
<stop stop-color="#FFCAE9"/>
<stop offset="0.98" stop-color="#F9179A"/>
</linearGradient>
<clipPath id="clip0_11_6919">
<rect width="78" height="66" fill="white"/>
</clipPath>
</defs>
</svg>
